<svg width="200" height="67" viewBox="0 0 200 67" fill="none" xmlns="http://www.w3.org/2000/svg">
<path d="M155.401 66.1102H153.461V59.4248H148.194L143.651 66.1102H141.509L146.084 59.2793C144.678 59.1419 143.623 58.7296 142.932 58.0344C142.139 57.2462 141.743 56.2196 141.743 54.9706C141.743 53.6165 142.16 52.5495 142.988 51.7572C143.817 50.9286 145.082 50.5123 146.78 50.5123H155.405V66.1102H155.401ZM153.461 57.5979V52.3029H146.691C145.801 52.3029 145.126 52.4767 144.666 52.8243C144.067 53.2851 143.768 54.0086 143.768 54.9948C143.768 55.8639 144.039 56.5065 144.577 56.9309C145.139 57.3756 145.87 57.5979 146.776 57.5979H153.461ZM136.004 66.1102H134.064V54.0127L124.137 66.1102H122.863V50.5123H124.799V62.6099L134.698 50.5123H136.004V66.1102ZM115.628 61.1305L117.188 62.2906C116.457 63.6608 115.471 64.7077 114.238 65.4312C113.005 66.1547 111.594 66.5144 110.014 66.5144C107.682 66.5144 105.75 65.7464 104.226 64.2145C102.702 62.6826 101.938 60.7263 101.938 58.3578C101.938 55.9892 102.702 54.0248 104.226 52.4848C105.75 50.9408 107.682 50.1688 110.014 50.1688C111.461 50.1688 112.779 50.4881 113.963 51.1227C115.147 51.7613 116.109 52.6586 116.841 53.8146L115.22 54.9746C114.719 54.0288 114.007 53.2932 113.094 52.7758C112.176 52.2544 111.15 51.9957 110.01 51.9957C108.272 51.9957 106.825 52.5899 105.669 53.7863C104.509 54.9827 103.931 56.5065 103.931 58.3618C103.931 60.2171 104.509 61.7328 105.669 62.9171C106.825 64.1014 108.272 64.6996 110.01 64.6996C112.5 64.6996 114.371 63.5112 115.624 61.1386L115.628 61.1305ZM96.4653 61.1305L98.0255 62.2906C97.2939 63.6608 96.3077 64.7077 95.0749 65.4312C93.8421 66.1547 92.4314 66.5144 90.851 66.5144C88.5188 66.5144 86.5868 65.7464 85.063 64.2145C83.5391 62.6826 82.7752 60.7263 82.7752 58.3578C82.7752 55.9892 83.5391 54.0248 85.063 52.4848C86.5868 50.9408 88.5188 50.1688 90.851 50.1688C92.2981 50.1688 93.6157 50.4881 94.8 51.1227C95.9843 51.7613 96.9463 52.6586 97.6779 53.8146L96.0571 54.9746C95.5559 54.0288 94.8445 53.2932 93.931 52.7758C93.0135 52.2544 91.9868 51.9957 90.847 51.9957C89.1089 51.9957 87.6619 52.5899 86.5059 53.7863C85.3459 54.9827 84.7679 56.5065 84.7679 58.3618C84.7679 60.2171 85.3459 61.7328 86.5059 62.9171C87.6619 64.1014 89.1089 64.6996 90.847 64.6996C93.3368 64.6996 95.2083 63.5112 96.4613 61.1386L96.4653 61.1305ZM76.1019 64.2105C74.566 65.7464 72.6339 66.5104 70.2977 66.5104C67.9614 66.5104 66.0334 65.7424 64.5096 64.2105C62.9858 62.6786 62.2219 60.7223 62.2219 58.3537C62.2219 55.9851 62.9858 54.0207 64.5096 52.4807C66.0334 50.9367 67.9655 50.1647 70.2977 50.1647C72.6299 50.1647 74.566 50.9367 76.1019 52.4807C77.6338 54.0248 78.4018 55.9811 78.4018 58.3537C78.4018 60.7263 77.6338 62.6786 76.1019 64.2105ZM65.9607 62.909C67.1167 64.0933 68.5637 64.6915 70.3017 64.6915C72.0398 64.6915 73.4868 64.0933 74.6428 62.8969C75.8028 61.7005 76.3808 60.1847 76.3808 58.3537C76.3808 56.5227 75.8028 54.9787 74.6428 53.7782C73.4868 52.5818 72.0357 51.9876 70.3017 51.9876C68.5677 51.9876 67.1167 52.5818 65.9607 53.7782C64.8006 54.9746 64.2226 56.4985 64.2226 58.3537C64.2226 60.209 64.8006 61.7247 65.9607 62.909ZM44.5989 66.1102V50.5123H53.5397C55.0797 50.5123 56.2842 50.8842 57.1411 51.6239C57.998 52.3676 58.4265 53.4064 58.4265 54.7362C58.4265 56.066 58.0142 57.1573 57.1815 58.0061C56.3529 58.8549 55.2212 59.2793 53.7944 59.2793H46.527V66.1102H44.5909H44.5989ZM46.5391 57.4564H53.4266C55.4152 57.4564 56.4055 56.6076 56.4055 54.914C56.4055 54.1016 56.1549 53.467 55.6537 53.0022C55.1525 52.5414 54.4411 52.3069 53.5155 52.3069H46.5391V57.4564ZM46.915 35.5813H40.0639L45.6094 24.2113L33.7827 0H40.6338L49.0451 17.2066L57.4645 0H64.3237L46.9109 35.5813H46.915ZM93.2681 5.5011H83.046V35.5813H75.916V5.5011H65.795V0H93.2641V5.5011H93.2681ZM127.051 35.5813H119.989V19.753H104.646V35.5813H97.5607V0H104.646V13.5891H119.989V0H127.051V35.5813ZM163.622 35.5813H156.561V16.2082L141.222 26.3818V35.5773H134.157V0H141.222V18.981L156.561 8.81146V0H163.622V35.5813ZM170.728 0H177.798V13.5891H183.646L192.074 0H199.907L189.548 16.669L200 35.5773H191.665L183.384 19.749H177.802V35.5773H170.732V0H170.728ZM29.4739 35.5813H22.4167V5.64257H7.06534V35.5773H0V0H29.4739V35.5813Z" fill="white" style="mix-blend-mode:difference"/>
</svg>
